<svg xmlns="http://www.w3.org/2000/svg" version="1.1" xmlns:xlink="http://www.w3.org/1999/xlink" xmlns:svgjs="http://svgjs.dev/svgjs" width="1000" height="623" viewBox="0 0 1000 623"><g transform="matrix(1,0,0,1,-0.6060606060606233,0.2522267206477409)"><svg viewBox="0 0 396 247" data-background-color="#dedede" preserveAspectRatio="xMidYMid meet" height="623" width="1000" xmlns="http://www.w3.org/2000/svg" xmlns:xlink="http://www.w3.org/1999/xlink"><g id="tight-bounds" transform="matrix(1,0,0,1,0.2400000000000091,-0.09999999999999432)"><svg viewBox="0 0 395.52 247.2" height="247.2" width="395.52"><g><svg></svg></g><g><svg viewBox="0 0 395.52 247.2" height="247.2" width="395.52"><g transform="matrix(1,0,0,1,118.53805028571429,47.215199999999996)"><svg viewBox="0 0 158.4438994285714 152.7696" height="152.7696" width="158.4438994285714"><g><svg viewBox="0 0 158.4438994285714 152.7696" height="152.7696" width="158.4438994285714"><g><svg viewBox="0 0 158.4438994285714 152.7696" height="152.7696" width="158.4438994285714"><g><svg viewBox="0 0 158.4438994285714 152.7696" height="152.7696" width="158.4438994285714"><g id="textblocktransform"><svg viewBox="0 0 158.4438994285714 152.7696" height="152.7696" width="158.4438994285714" id="textblock"><g><svg viewBox="0 0 158.4438994285714 152.7696" height="152.7696" width="158.4438994285714"><g transform="matrix(1,0,0,1,0,0)"><svg width="158.4438994285714" viewBox="3.200000047683716 -35 36.29999923706055 35" height="152.7696" data-palette-color="#374151"><path d="M6.5 0L6.5-31.6 3.2-31.7 3.2-35 10.1-35 10.1 0 6.5 0ZM17.85 0L17.85-35 28.65-35Q32.75-35 35.22-32.85 37.7-30.7 37.7-26.4L37.7-26.4Q37.7-24.45 37.05-22.68 36.4-20.9 34.4-19.55L34.4-19.55 34.35-19.45 34.35-19.4Q36.55-18.4 38.02-16.18 39.5-13.95 39.5-10.4L39.5-10.4Q39.5-6.15 37.1-3.08 34.7 0 29.2 0L29.2 0 17.85 0ZM27.9-20.65Q30.7-20.65 32.22-22 33.75-23.35 33.75-26.15L33.75-26.15Q33.75-29.15 32.15-30.33 30.55-31.5 27.8-31.5L27.8-31.5 21.45-31.5 21.45-20.65 27.9-20.65ZM28.4-3.35Q31.75-3.35 33.62-4.9 35.5-6.45 35.5-10.55L35.5-10.55Q35.5-13.85 33.62-15.5 31.75-17.15 29.1-17.15L29.1-17.15 21.45-17.15 21.45-3.35 28.4-3.35Z" opacity="1" transform="matrix(1,0,0,1,0,0)" fill="#374151" class="wordmark-text-0" data-fill-palette-color="primary" id="text-0"></path></svg></g></svg></g></svg></g></svg></g></svg></g></svg></g></svg></g><g><path d="M0 123.6c0-68.262 55.338-123.6 123.6-123.6 30.402 0 58.24 10.976 79.768 29.183l-11.147 0c-19.26-14.022-42.974-22.294-68.621-22.295-64.458 0-116.712 52.254-116.712 116.712 0 64.458 52.254 116.712 116.712 116.712 25.647 0 49.361-8.272 68.621-22.295l11.147 0c-21.528 18.206-49.366 29.183-79.768 29.183-68.262 0-123.6-55.338-123.6-123.6z" fill="#374151" stroke="transparent" data-fill-palette-color="tertiary"></path></g></svg></g><defs></defs></svg><rect width="395.52" height="247.2" fill="none" stroke="none" visibility="hidden"></rect></g></svg></g></svg>